<?xml version="1.0" encoding="utf-8"?>
<!-- Generator: Adobe Illustrator 16.0.0, SVG Export Plug-In . SVG Version: 6.00 Build 0)  -->
<!DOCTYPE svg PUBLIC "-//W3C//DTD SVG 1.1//EN" "http://www.w3.org/Graphics/SVG/1.1/DTD/svg11.dtd">
<svg version="1.1" id="Calque_1" xmlns="http://www.w3.org/2000/svg" xmlns:xlink="http://www.w3.org/1999/xlink" x="0px" y="0px"
	 width="419.667px" height="62.333px" viewBox="0 0 419.667 62.333" enable-background="new 0 0 419.667 62.333"
	 xml:space="preserve">
<path fill="#FF3632" d="M27.889,20.811c-5.172,0-9.648,1.854-13.304,5.51c-3.655,3.656-5.509,8.132-5.509,13.303
	c0,5.173,1.854,9.648,5.509,13.305c3.655,3.654,8.132,5.508,13.304,5.508c5.171,0,9.648-1.854,13.304-5.508
	c3.655-3.656,5.509-8.132,5.509-13.305c0-5.17-1.854-9.647-5.509-13.303C37.538,22.664,33.061,20.811,27.889,20.811z M27.889,52.458
	c-3.534,0-6.591-1.264-9.081-3.752c-2.49-2.492-3.754-5.547-3.754-9.083c0-3.533,1.264-6.591,3.754-9.081
	c2.49-2.491,5.547-3.754,9.081-3.754s6.591,1.263,9.081,3.754c2.49,2.49,3.754,5.547,3.754,9.081c0,3.536-1.264,6.59-3.754,9.083
	C34.48,51.194,31.423,52.458,27.889,52.458z"/>
<path fill="#FF3632" d="M89.287,20.811c-4.953,0-9.269,1.7-12.835,5.055V7.909c0-0.818-0.297-1.529-0.879-2.111
	c-0.583-0.583-1.292-0.878-2.11-0.878c-0.819,0-1.53,0.295-2.113,0.878c-0.583,0.582-0.876,1.292-0.876,2.111v31.714
	c0,5.173,1.853,9.648,5.508,13.305c3.657,3.654,8.132,5.508,13.305,5.508c5.17,0,9.647-1.854,13.302-5.508
	c3.657-3.656,5.511-8.132,5.511-13.305c0-5.17-1.854-9.647-5.511-13.303C98.934,22.664,94.458,20.811,89.287,20.811z M89.287,52.458
	c-3.536,0-6.59-1.264-9.082-3.752c-2.491-2.492-3.753-5.547-3.753-9.083c0-3.533,1.262-6.591,3.753-9.081
	c2.492-2.491,5.546-3.754,9.082-3.754c3.533,0,6.589,1.263,9.08,3.754c2.492,2.49,3.755,5.547,3.755,9.081
	c0,3.536-1.264,6.59-3.755,9.083C95.876,51.194,92.82,52.458,89.287,52.458z"/>
<path fill="#FF3632" d="M148.996,10.964c0.819,0,1.53-0.295,2.113-0.878c0.582-0.582,0.876-1.292,0.876-2.111
	c0-0.818-0.294-1.529-0.876-2.111c-0.583-0.583-1.294-0.878-2.113-0.878h-31.648c-0.819,0-1.527,0.295-2.11,0.878
	c-0.583,0.582-0.879,1.292-0.879,2.111v47.472c0,0.818,0.296,1.53,0.879,2.112c0.583,0.583,1.291,0.876,2.11,0.876h31.648
	c0.819,0,1.53-0.294,2.113-0.876c0.582-0.582,0.876-1.294,0.876-2.112c0-0.819-0.294-1.528-0.876-2.11
	c-0.583-0.583-1.294-0.879-2.113-0.879h-28.659V34.7h20.747c0.819,0,1.53-0.294,2.113-0.876c0.582-0.583,0.876-1.294,0.876-2.112
	s-0.294-1.529-0.876-2.111c-0.583-0.582-1.294-0.877-2.113-0.877h-20.747V10.964H148.996z"/>
<path fill="#FF3632" d="M163.87,4.92c-0.993,0-1.858,0.362-2.571,1.076c-0.714,0.713-1.077,1.579-1.077,2.573
	c0,0.994,0.363,1.859,1.077,2.573c0.713,0.713,1.578,1.076,2.571,1.076c0.995,0,1.86-0.362,2.574-1.076
	c0.713-0.714,1.074-1.579,1.074-2.573c0-0.994-0.361-1.859-1.074-2.573C165.729,5.282,164.864,4.92,163.87,4.92z"/>
<path fill="#FF3632" d="M163.87,20.811c-0.819,0-1.527,0.295-2.11,0.877c-0.583,0.583-0.879,1.293-0.879,2.111v31.648
	c0,0.818,0.297,1.53,0.879,2.112c0.583,0.583,1.291,0.876,2.11,0.876s1.53-0.294,2.113-0.876c0.582-0.582,0.876-1.294,0.876-2.112
	V23.799c0-0.818-0.294-1.529-0.876-2.111C165.4,21.106,164.688,20.811,163.87,20.811z"/>
<path fill="#FF3632" d="M215.669,4.986c-0.819,0-1.527,0.295-2.11,0.878c-0.583,0.582-0.879,1.292-0.879,2.111v38.766L181.052,6.059
	c-0.639-0.711-1.414-1.073-2.306-1.073c-0.819,0-1.528,0.295-2.11,0.878c-0.583,0.582-0.879,1.292-0.879,2.111v47.472
	c0,0.818,0.297,1.53,0.879,2.112c0.582,0.583,1.291,0.876,2.11,0.876c0.818,0,1.53-0.294,2.112-0.876
	c0.583-0.582,0.876-1.294,0.876-2.112V16.714l31.703,40.757c0.616,0.64,1.366,0.964,2.231,0.964c0.819,0,1.531-0.294,2.113-0.876
	c0.582-0.582,0.877-1.294,0.877-2.112V7.975c0-0.818-0.295-1.529-0.877-2.111C217.2,5.282,216.488,4.986,215.669,4.986z"/>
<path fill="#FF3632" d="M251.641,10.964c4.863,0,9.169,1.482,12.773,4.38c0.594,0.594,1.311,0.895,2.129,0.895
	c0.819,0,1.528-0.295,2.11-0.878s0.879-1.292,0.879-2.111c0-0.816-0.288-1.529-0.887-2.151c-4.942-4.057-10.664-6.113-17.005-6.113
	c-7.338,0-13.691,2.636-18.89,7.834s-7.835,11.554-7.835,18.891c0,7.337,2.637,13.694,7.835,18.892s11.552,7.833,18.89,7.833
	c6.207,0,11.861-2,16.831-5.97c0.571-0.571,0.863-1.277,0.863-2.096V34.348c0-0.816-0.289-1.53-0.868-2.132
	c-0.591-0.569-1.294-0.856-2.088-0.856h-13.09c-0.818,0-1.527,0.295-2.109,0.878c-0.582,0.583-0.879,1.292-0.879,2.11
	c0,0.819,0.297,1.53,0.879,2.113s1.291,0.876,2.109,0.876h10.067V48.87c-3.385,2.382-7.325,3.588-11.716,3.588
	c-5.7,0-10.635-2.044-14.667-6.077c-4.033-4.033-6.08-8.97-6.08-14.67s2.047-10.636,6.08-14.669
	C241.006,13.01,245.941,10.964,251.641,10.964z"/>
<path fill="#FF3632" d="M308.055,52.458h-26.022V7.975c0-0.818-0.294-1.529-0.876-2.111c-0.583-0.583-1.294-0.878-2.113-0.878
	c-0.818,0-1.527,0.295-2.109,0.878c-0.582,0.582-0.879,1.292-0.879,2.111v47.472c0,0.818,0.297,1.53,0.879,2.112
	c0.582,0.583,1.291,0.876,2.109,0.876h29.012c0.818,0,1.53-0.294,2.112-0.876c0.582-0.582,0.876-1.294,0.876-2.112
	c0-0.819-0.294-1.528-0.876-2.11C309.585,52.755,308.874,52.458,308.055,52.458z"/>
<path fill="#FF3632" d="M322.931,4.986c-0.818,0-1.53,0.295-2.112,0.878c-0.583,0.582-0.877,1.292-0.877,2.111v47.472
	c0,0.818,0.294,1.53,0.877,2.112c0.582,0.583,1.294,0.876,2.112,0.876s1.527-0.294,2.11-0.876c0.582-0.582,0.879-1.294,0.879-2.112
	V7.975c0-0.818-0.297-1.529-0.879-2.111C324.458,5.282,323.75,4.986,322.931,4.986z"/>
<path fill="#FF3632" d="M350.719,26.064c-2.544-0.663-4.4-1.543-5.491-2.592c-1.36-1.588-1.965-3.443-1.797-5.511
	c0.168-2.048,1.058-3.77,2.646-5.118c1.591-1.351,3.448-1.946,5.514-1.78c2.047,0.167,3.774,1.058,5.121,2.632
	c0.418,0.549,0.824,1.086,1.22,1.613c0.464,0.619,1.179,0.932,2.126,0.932c0.819,0,1.53-0.295,2.113-0.878
	c0.582-0.583,0.876-1.292,0.876-2.111c0-0.593-0.151-1.132-0.445-1.6c-0.382-0.628-0.824-1.242-1.326-1.834
	c-2.912-3.205-6.374-4.83-10.283-4.83c-3.303,0-6.261,1.104-8.797,3.282c-2.83,2.402-4.426,5.5-4.739,9.207
	c-0.291,3.728,0.777,7.052,3.209,9.912c2.415,2.234,5.357,3.672,8.723,4.269c3.365,0.879,5.871,2.22,7.434,3.976
	c1.8,2.134,2.594,4.643,2.36,7.456c-0.233,2.794-1.435,5.124-3.568,6.931c-2.141,1.811-4.662,2.615-7.426,2.409
	c-2.813-0.233-5.148-1.445-6.959-3.618c-0.335-0.354-0.632-0.736-0.891-1.143c-0.615-0.912-1.467-1.374-2.532-1.374
	c-0.819,0-1.528,0.296-2.11,0.879s-0.879,1.291-0.879,2.11c0,0.67,0.203,1.275,0.585,1.775c0.382,0.585,0.816,1.143,1.288,1.659
	c3.459,3.797,7.651,5.72,12.456,5.72c3.85,0,7.333-1.302,10.35-3.874c3.376-2.863,5.271-6.561,5.629-10.986
	c0.044-0.514,0.065-1.033,0.065-1.547c0-3.805-1.28-7.252-3.81-10.253C358.942,29.006,355.351,27.083,350.719,26.064z"/>
<path fill="#FF3632" d="M408.198,5.864c-0.583-0.583-1.291-0.878-2.11-0.878c-0.818,0-1.53,0.295-2.112,0.878
	c-0.582,0.582-0.877,1.292-0.877,2.111v20.748h-25.67V7.975c0-0.818-0.297-1.529-0.879-2.111c-0.582-0.583-1.291-0.878-2.11-0.878
	c-0.818,0-1.53,0.295-2.112,0.878c-0.582,0.582-0.876,1.292-0.876,2.111v47.472c0,0.818,0.294,1.53,0.876,2.112
	c0.582,0.583,1.294,0.876,2.112,0.876c0.819,0,1.528-0.294,2.11-0.876c0.582-0.582,0.879-1.294,0.879-2.112V34.7h25.67v20.748
	c0,0.818,0.295,1.53,0.877,2.112c0.582,0.583,1.294,0.876,2.112,0.876c0.819,0,1.527-0.294,2.11-0.876
	c0.582-0.582,0.879-1.294,0.879-2.112V7.975C409.077,7.157,408.78,6.446,408.198,5.864z"/>
<path fill="#FF3632" d="M56.134,4.852c-2.827,0.067-5.063,2.412-4.998,5.238c0.042,1.826,1.042,3.393,2.5,4.266
	c0.743,0.539,1.618,0.856,2.64,0.937c-0.365,1.81-1.203,3.451-2.521,4.922c-0.438,0.506-0.65,1.028-0.639,1.569
	c0.015,0.63,0.287,1.174,0.816,1.634c0.527,0.461,1.107,0.684,1.736,0.668c0.72-0.017,1.343-0.324,1.871-0.921
	c2.896-3.264,4.294-7.013,4.192-11.242c-0.025-1.139-0.189-2.123-0.473-2.969C60.779,6.567,58.653,4.792,56.134,4.852z"/>
</svg>
